<svg width="22" height="22" fill="none" xmlns="http://www.w3.org/2000/svg"><path d="M4.917 18.557h12.167a.555.555 0 00.555-.554v-6.655a.556.556 0 00-.555-.555H4.917a.555.555 0 00-.555.555v6.655a.555.555 0 00.555.554zm8.717-6.655h2.895v2.219h-2.895v-2.219zm0 3.328h2.895v2.218h-2.895V15.23zm-4.159-3.328h3.05v2.219h-3.05v-2.219zm0 3.328h3.05v2.218h-3.05V15.23zm-4.004-3.328h2.895v2.219H5.471v-2.219zm0 3.328h2.895v2.218H5.471V15.23z" fill="#D58A5C"/><path d="M22 5.345a2.773 2.773 0 00-2.773-2.773h-1.273V1.036a.555.555 0 00-1.109 0v1.536h-5.29V1.036a.554.554 0 10-1.11 0v1.536h-5.29V1.036a.555.555 0 00-1.11 0v1.536H2.774A2.774 2.774 0 000 5.345v13.542a2.772 2.772 0 002.773 2.773h16.454A2.773 2.773 0 0022 18.887V5.345zM20.891 18.89a1.664 1.664 0 01-1.664 1.664H2.773a1.664 1.664 0 01-1.664-1.663V8.7h19.782v10.19zm0-11.296H1.109V5.348a1.664 1.664 0 011.664-1.664h1.273V5.22a.555.555 0 001.109 0V3.682h5.29v1.536a.554.554 0 101.11 0V3.682h5.29v1.536a.555.555 0 001.11 0V3.682h1.272a1.664 1.664 0 011.664 1.663v2.249z" fill="#D58A5C"/></svg>