<svg width="51" height="51" fill="none" xmlns="http://www.w3.org/2000/svg"><circle cx="25.5" cy="25.5" r="25.5" fill="#fff"/><path d="M49.867 25.4c0 13.383-10.93 24.271-24.367 24.271-13.436 0-24.367-10.888-24.367-24.271 0-13.383 10.931-24.271 24.367-24.271 13.436 0 24.367 10.888 24.367 24.271zm1.133 0C51 11.43 39.525 0 25.5 0S0 11.43 0 25.4c0 13.97 11.475 25.4 25.5 25.4S51 39.37 51 25.4z" fill="#D48A5C"/><path d="M25.5 14.111c.311 0 .567.254.567.565v21.449a.567.567 0 01-1.134 0v-21.45c0-.31.256-.564.567-.564z" fill="#D48A5C"/><path d="M25.098 14.277a.564.564 0 000 .798l6.635 6.608a.564.564 0 10.801-.798L25.9 14.277a.57.57 0 00-.802 0z" fill="#D48A5C"/><path d="M25.9 14.277a.57.57 0 00-.8 0l-6.635 6.608a.564.564 0 000 .798c.22.22.58.22.801 0l6.635-6.608a.564.564 0 000-.798z" fill="#D48A5C"/></svg>