<svg width="20" height="20" fill="none" xmlns="http://www.w3.org/2000/svg"><path d="M6.272.74A5.482 5.482 0 00.799 6.22v7.827a5.484 5.484 0 005.475 5.478h7.82c3.018 0 5.473-2.459 5.473-5.48V6.217A5.483 5.483 0 0014.092.74h-7.82zm9.542 3.005a.751.751 0 11-.002 1.503.751.751 0 01.002-1.503zm-5.631 1.503c2.691 0 4.88 2.19 4.88 4.884a4.887 4.887 0 01-4.88 4.885 4.887 4.887 0 01-4.88-4.885 4.887 4.887 0 014.88-4.884zm0 1.503a3.38 3.38 0 00-3.378 3.381 3.38 3.38 0 003.378 3.382 3.38 3.38 0 003.378-3.382 3.38 3.38 0 00-3.378-3.381z" fill="#F33333"/></svg>