<svg width="21" height="23" fill="none" xmlns="http://www.w3.org/2000/svg"><path d="M1.167 12.105H0v-1.21h3.5v1.21H2.333v3.632H1.167v-3.632zm5.01 4.866h1.167c.016-1.66.878-3.186 2.266-4.01a4.364 4.364 0 014.48 0c1.387.824 2.25 2.35 2.265 4.01h1.167a6.04 6.04 0 00-.998-3.319 5.709 5.709 0 00-2.63-2.155 3.286 3.286 0 001.063-2.294 3.307 3.307 0 00-.863-2.382 3.068 3.068 0 00-2.257-.998c-.852 0-1.666.363-2.255 1.003-.588.64-.898 1.5-.859 2.384.04.883.425 1.71 1.067 2.291a5.711 5.711 0 00-2.62 2.157 6.037 6.037 0 00-.992 3.313zm-5.01-7.287h1.166V6.053H3.5v-1.21H0v1.21h1.167v3.631zm0-9.684v3.631h1.166v-2.42h17.5v20.578h-17.5v-3.631H3.5v-1.21H0v1.21h1.167V23H21V0H1.167z" fill="#D58A5C"/></svg>