<svg width="23" height="27" fill="none" xmlns="http://www.w3.org/2000/svg"><path d="M1.516 10.105a9.439 9.439 0 013.385-6.434 9.443 9.443 0 016.943-2.155A9.44 9.44 0 0118.278 4.9c3.187 3.832 2.844 9.449-.668 12.872l4.118 4.954a.753.753 0 01-.452 1.22.76.76 0 01-.706-.26l-4.119-4.953a9.407 9.407 0 01-3.854 1.596c-3.237.556-6.68-.58-8.926-3.285a9.426 9.426 0 01-2.155-6.939zm3.31 5.983c2.82 3.391 7.872 3.857 11.263 1.035 3.391-2.82 3.852-7.87 1.036-11.259a7.955 7.955 0 00-5.418-2.849 7.922 7.922 0 00-5.845 1.814 7.955 7.955 0 00-2.85 5.418 7.941 7.941 0 001.814 5.84v.001z" fill="#000"/></svg>