<svg width="17" height="16" fill="none" xmlns="http://www.w3.org/2000/svg"><path d="M13.326 15.063a.237.237 0 00.17-.093.232.232 0 00.043-.187l-1.087-5.215 3.98-3.586a.232.232 0 00.066-.246.236.236 0 00-.2-.16l-5.355-.595L8.719.137a.237.237 0 00-.431 0L6.064 4.981l-5.356.595a.236.236 0 00-.2.16.232.232 0 00.067.246l3.98 3.586-1.087 5.215c-.02.09.017.183.092.237a.24.24 0 00.257.015l4.686-2.631 4.687 2.631a.238.238 0 00.136.028zm-.358-.692L8.62 11.93a.239.239 0 00-.232 0l-4.349 2.44 1.007-4.836a.232.232 0 00-.074-.222l-3.694-3.33 4.97-.55a.236.236 0 00.19-.134l2.065-4.5 2.065 4.5a.237.237 0 00.19.135l4.97.549-3.693 3.331a.232.232 0 00-.074.222l1.008 4.836z" fill="#EAB665"/></svg>