<svg width="25" height="22" fill="none" xmlns="http://www.w3.org/2000/svg"><path d="M24.346 3.294a9.57 9.57 0 01-2.826.812 5.117 5.117 0 002.163-2.836 9.576 9.576 0 01-3.122 1.24A4.8 4.8 0 0016.978.898c-2.714 0-4.914 2.291-4.914 5.116 0 .4.044.79.128 1.167-4.082-.216-7.705-2.255-10.128-5.35A5.25 5.25 0 001.4 4.407c0 1.776.866 3.34 2.186 4.26a4.819 4.819 0 01-2.228-.638v.06c0 2.481 1.694 4.548 3.94 5.018-.41.118-.844.184-1.291.184a5.02 5.02 0 01-.926-.094c.625 2.028 2.44 3.51 4.589 3.554a9.628 9.628 0 01-6.104 2.19 9.26 9.26 0 01-1.171-.073 13.552 13.552 0 007.533 2.296c9.038 0 13.982-7.796 13.982-14.56 0-.221-.006-.442-.017-.66a9.943 9.943 0 002.454-2.65z" fill="#00B2FF"/></svg>