<svg width="23" height="32" fill="none" xmlns="http://www.w3.org/2000/svg"><path d="M11.363 31.815c-.312 0-.61-.128-.824-.353C10.113 31.008 0 20.265 0 11.362A11.517 11.517 0 0111.363 0a11.517 11.517 0 0111.362 11.363c0 8.902-10.112 19.645-10.539 20.099a1.137 1.137 0 01-.823.353zm0-29.542a9.214 9.214 0 00-9.09 9.09c0 6.62 6.709 14.891 9.09 17.617 2.379-2.727 9.09-11.007 9.09-17.612a9.215 9.215 0 00-9.09-9.096z" fill="#D48A5C"/><path d="M11.363 15.907a4.545 4.545 0 110-9.09 4.545 4.545 0 010 9.09zm0-6.817a2.273 2.273 0 100 4.546 2.273 2.273 0 000-4.546z" fill="#D48A5C"/></svg>